<svg width="361" height="49" viewBox="0 0 361 49" fill="none" xmlns="http://www.w3.org/2000/svg">
<path d="M19.8369 47.6085C22.7727 47.6085 25.497 46.3389 27.4807 44.1965C29.4644 42.0542 30.6281 39.1977 30.6281 36.2089C30.6281 34.2517 30.2049 32.4002 29.3321 30.681C28.4593 28.9354 27.2691 27.5865 25.7879 26.6079C27.7981 24.8358 28.8031 22.3495 28.8031 19.2814C28.8031 16.2398 27.6923 13.5155 25.7086 11.5054C23.7249 9.49526 21.0535 8.33149 18.0912 8.33149H1.03152C0.343839 8.33149 0 8.67533 0 9.36301V46.5505C0 47.2647 0.343839 47.6085 1.03152 47.6085H19.8369ZM7.72315 24.2803V14.7057H16.1075C17.5887 14.7057 18.8847 15.1554 19.7575 16.0017C20.6303 16.8481 21.1329 18.0912 21.1329 19.4666C21.1329 22.4289 19.1492 24.2803 16.0546 24.2803H7.72315ZM7.72315 41.1549V30.3636H17.6416C18.9905 30.3636 20.2601 30.9191 21.2122 31.9506C22.1644 32.9821 22.7463 34.4104 22.7463 35.918C22.7463 37.214 22.2966 38.5364 21.4767 39.4886C20.6039 40.5201 19.3079 41.1549 17.7474 41.1549H7.72315Z" fill="#FFD200"/>
<path d="M69.6795 47.6085C70.4465 47.5556 70.8432 47.1589 70.8432 46.4447V41.6045C70.8432 40.864 70.3407 40.3879 69.6795 40.3879H54.2067V9.44236C54.1538 8.67533 53.7571 8.27859 53.0429 8.27859H47.6473C46.9332 8.27859 46.4307 8.78113 46.4307 9.44236V46.4447C46.4307 47.2118 46.8274 47.6085 47.5944 47.6085H69.6795Z" fill="#FFD200"/>
<path d="M91.9174 47.6085C92.5522 47.6085 92.9489 47.344 93.2399 46.6299L95.7526 40.3085H111.966L114.531 46.6563C114.743 47.2911 115.166 47.6085 115.827 47.6085H121.62C122.149 47.6085 122.466 47.3704 122.466 46.9473C122.466 46.7886 122.44 46.6299 122.36 46.4712L107.443 9.33656C107.179 8.67533 106.729 8.33149 106.094 8.33149H101.677C101.095 8.33149 100.646 8.67533 100.355 9.33656L85.4109 46.4712C85.3316 46.6828 85.2787 46.8415 85.2787 46.9737C85.2787 47.3969 85.5696 47.6085 86.1251 47.6085H91.9174ZM98.2388 33.4846L103.899 18.488L109.453 33.4846H98.2388Z" fill="#FFD200"/>
<path d="M155.375 48.1639C159.95 48.1639 163.653 46.8415 166.854 44.4875C167.25 44.1965 167.462 43.9056 167.462 43.6147C167.462 43.4031 167.356 43.1915 167.145 42.9534L164.473 38.4306C164.288 38.1661 164.05 38.0339 163.759 38.0339C163.495 38.0339 163.177 38.1661 162.807 38.4571C160.797 39.9382 158.125 40.9169 155.375 40.9169C151.883 40.9169 148.762 39.4886 146.461 37.0817C144.213 34.6749 142.891 31.4216 142.891 27.9039C142.891 24.3861 144.213 21.1593 146.461 18.8054C148.71 16.4778 151.857 15.1025 155.375 15.1025C156.777 15.1025 158.099 15.3141 159.316 15.7373C160.4 16.1075 161.59 16.7159 162.939 17.5358C163.23 17.7209 163.521 17.8267 163.759 17.8267C164.024 17.8267 164.235 17.7209 164.42 17.4829L167.224 12.7485C167.303 12.6163 167.356 12.4576 167.356 12.2724C167.356 11.955 167.197 11.6641 166.907 11.426C163.706 9.07207 160.003 7.77606 155.375 7.77606C151.698 7.77606 148.207 8.72823 145.139 10.5003C142.15 12.1931 139.637 14.7057 137.839 17.6945C136.04 20.7361 135.062 24.2274 135.062 27.9039C135.062 31.5803 136.04 35.098 137.839 38.1397C139.611 41.1284 142.15 43.6676 145.139 45.3868C148.207 47.1853 151.698 48.1639 155.375 48.1639Z" fill="#FFD200"/>
<path d="M191.614 47.6085C192.275 47.6085 192.619 47.2382 192.619 46.5241V36.0238L197.407 30.8926L209.335 46.6563C209.864 47.3176 210.208 47.6085 210.763 47.6085H218.46C218.91 47.6085 219.174 47.3705 219.174 47.0266C219.174 46.8415 219.095 46.6299 218.91 46.3918L202.564 25.0209L216.159 9.54816C216.344 9.31011 216.423 9.09852 216.423 8.88692C216.423 8.56954 216.185 8.33149 215.762 8.33149H208.938C208.224 8.33149 207.907 8.43729 207.299 9.09852L192.619 25.7615V9.41591C192.619 8.78113 191.984 8.33149 191.535 8.33149H185.928C185.293 8.33149 184.896 8.75468 184.896 9.41591V46.5241C184.896 47.2382 185.24 47.6085 185.928 47.6085H191.614Z" fill="#FFD200"/>
<path d="M248.764 47.6085C249.452 47.6085 249.796 47.2647 249.796 46.5505V15.4199H259.952C260.64 15.4199 260.984 15.076 260.984 14.3619V9.36301C260.984 8.67533 260.64 8.33149 259.952 8.33149H232.181C231.493 8.33149 231.149 8.67533 231.149 9.36301V14.3619C231.149 15.076 231.493 15.4199 232.181 15.4199H242.046V46.5505C242.046 47.2647 242.39 47.6085 243.078 47.6085H248.764Z" fill="#FFD200"/>
<path d="M333.154 47.6085C333.973 47.6085 334.37 47.2117 334.317 46.4447V20.2865L352.699 46.7357C353.255 47.3969 353.467 47.6085 354.234 47.6085H359.444C360.317 47.6085 360.74 47.2117 360.74 46.4447V9.49524C360.74 8.83402 360.052 8.33148 359.444 8.33148H354.101C353.652 8.33148 353.149 8.59597 352.938 9.1514V34.1723L335.56 9.1514C335.269 8.64887 334.582 8.33148 334.026 8.33148H327.811C327.07 8.33148 326.647 8.83402 326.647 9.49524V46.4447C326.647 47.2117 327.044 47.6085 327.811 47.6085H333.154Z" fill="#FFD200"/>
<path fill-rule="evenodd" clip-rule="evenodd" d="M287.571 5.41965C286.139 6.77341 285.246 8.6907 285.246 10.8166C285.246 14.9181 288.571 18.243 292.672 18.243C296.774 18.243 300.098 14.9181 300.098 10.8166C300.098 8.686 299.201 6.76493 297.764 5.41068L292.632 0L287.571 5.41965Z" fill="#FFD200"/>
<path fill-rule="evenodd" clip-rule="evenodd" d="M300.52 18.1213C301.86 16.8288 302.865 15.2184 303.436 13.4287C303.656 12.7377 303.808 12.031 303.892 11.3185C307.221 13.6793 309.758 17.3634 311.134 21.1966C312.564 25.183 312.671 29.5245 311.437 33.5762C310.204 37.628 307.697 41.1739 304.288 43.6872C300.879 46.2006 296.75 47.5474 292.515 47.5277C288.28 47.5079 284.164 46.1225 280.779 43.5774C277.393 41.0323 274.919 37.4631 273.724 33.4C272.529 29.337 272.676 24.9967 274.143 21.0238C275.562 17.1841 278.141 13.8856 281.517 11.5832C281.59 12.0997 281.699 12.6127 281.844 13.1184C282.384 14.9958 283.399 16.693 284.782 18.0507C283.005 19.4705 281.641 21.3526 280.848 23.5005C279.913 26.0308 279.819 28.7951 280.581 31.3828C281.342 33.9706 282.918 36.2437 285.074 37.8647C287.23 39.4857 289.851 40.368 292.548 40.3806C295.246 40.3932 297.875 39.5354 300.046 37.9347C302.217 36.3339 303.814 34.0756 304.6 31.495C305.385 28.9145 305.317 26.1495 304.406 23.6106C303.632 21.4538 302.285 19.558 300.52 18.1213Z" fill="#FFD200"/>
<path fill-rule="evenodd" clip-rule="evenodd" d="M283.966 28.0046C284.08 32.6774 287.904 36.4302 292.604 36.4302C297.305 36.4302 301.129 32.6774 301.243 28.0046H283.966Z" fill="#FFD200"/>
</svg>
