<?xml version="1.0" encoding="UTF-8" standalone="no"?><svg width="49" height="49" viewBox="0 0 49 49" version="1.1" xmlns="http://www.w3.org/2000/svg" xmlns:xlink="http://www.w3.org/1999/xlink" xml:space="preserve" xmlns:serif="http://www.serif.com/" style="fill-rule:evenodd;clip-rule:evenodd;stroke-linejoin:round;stroke-miterlimit:2;"><path d="M19.483,6.506c-1.432,1.353 -2.325,3.27 -2.325,5.396c-0,4.101 3.324,7.425 7.425,7.425c4.101,0 7.425,-3.324 7.425,-7.425c-0,-2.13 -0.897,-4.051 -2.334,-5.405l-5.131,-5.41l-5.06,5.419Z" style="fill:#ffd200;"/><path d="M32.43,19.206c1.34,-1.293 2.344,-2.903 2.915,-4.692c0.22,-0.691 0.372,-1.398 0.456,-2.11c3.329,2.36 5.865,6.044 7.241,9.876c1.43,3.986 1.537,8.327 0.303,12.378c-1.233,4.051 -3.739,7.597 -7.148,10.11c-3.408,2.513 -7.537,3.859 -11.771,3.84c-4.234,-0.02 -8.35,-1.405 -11.734,-3.95c-3.386,-2.545 -5.86,-6.113 -7.054,-10.176c-1.195,-4.062 -1.048,-8.402 0.419,-12.374c1.418,-3.84 3.997,-7.138 7.372,-9.44c0.073,0.517 0.182,1.03 0.327,1.535c0.54,1.877 1.555,3.574 2.938,4.932c-1.777,1.42 -3.141,3.301 -3.933,5.449c-0.935,2.53 -1.029,5.294 -0.267,7.881c0.76,2.588 2.336,4.86 4.492,6.481c2.156,1.621 4.776,2.503 7.473,2.516c2.698,0.012 5.326,-0.845 7.497,-2.446c2.171,-1.6 3.767,-3.858 4.553,-6.439c0.785,-2.58 0.717,-5.344 -0.194,-7.883c-0.774,-2.156 -2.12,-4.052 -3.885,-5.488Z" style="fill:#ffd200;"/><path d="M15.878,29.087c0.114,4.673 3.938,8.425 8.637,8.425c4.7,-0 8.524,-3.752 8.638,-8.425l-17.275,0Z" style="fill:#ffd200;"/><g id="header-logo"></g></svg>