<svg width="341" height="440" viewBox="0 0 341 440" fill="none" xmlns="http://www.w3.org/2000/svg">
<rect width="341" height="440" rx="10" fill="#FFD200"/>
<circle cx="170" cy="181" r="132" fill="#F8F8F8"/>
<path d="M172 223.001C172 229.07 176.937 234 183.041 234C189.144 234 194.081 229.07 194.081 223.001C194.081 216.933 189.144 212.003 183.041 212.003C176.937 212.003 172 216.933 172 223.001Z" stroke="black" stroke-width="4" stroke-linejoin="round"/>
<path d="M83.941 223.001C83.941 229.07 88.878 234 94.9816 234C101.085 234 106.022 229.07 106.022 223.001C106.022 216.933 101.085 212.003 94.9816 212.003C88.878 212.003 83.941 216.933 83.941 223.001Z" stroke="black" stroke-width="4" stroke-linejoin="round"/>
<path d="M103 171.5H108M116.5 141H103C92.8333 151.833 72.5 173.9 72.5 175.5C72.5 177.1 72.5 187.833 72.5 193C76.8333 190.667 87.6 186 96 186C104.4 186 113.167 190.667 116.5 193V141Z" stroke="black" stroke-width="4" stroke-linecap="round" stroke-linejoin="round"/>
<path d="M128.074 203.433V133.548M128.074 203.433V223.001M128.074 203.433H206.458M128.074 133.548V126H218.096V169.609M128.074 133.548H100.17C87.9705 145.475 63.572 170.503 63.572 175.199C63.572 178.471 63.572 193.603 63.572 207.207M128.074 223.001H121.624M128.074 223.001H166.074C167.102 217.737 171.851 207.207 182.62 207.207C193.389 207.207 198.138 217.737 199.166 223.001H206.458V218.109M121.624 223.001C120.595 214.522 113.771 197.563 94.7011 197.563C75.631 197.563 70.2091 214.522 69.8819 223.001M121.624 223.001H110.827C110.733 217.317 107.377 205.949 94.7011 205.949C82.0251 205.949 78.3887 217.317 78.155 223.001H69.8819M69.8819 223.001H63.572C63.572 221.524 63.572 219.878 63.572 218.109M63.572 207.207C61.048 206.788 56 207.375 56 213.077C56 218.78 61.048 218.808 63.572 218.109M63.572 207.207C63.572 211.066 63.572 214.802 63.572 218.109M206.458 203.433H218.096V175.199M206.458 203.433V207.207M206.458 207.207C208.467 206.881 212.431 207.598 212.207 213.077C211.982 218.557 208.28 218.715 206.458 218.109M206.458 207.207V218.109M218.096 169.609H202.531V175.199H218.096M218.096 169.609H273.203V175.199H218.096M220.76 186.661H284V191.692H220.76V186.661Z" stroke="black" stroke-width="4" stroke-linejoin="round"/>
</svg>
