<svg width="341" height="440" viewBox="0 0 341 440" fill="none" xmlns="http://www.w3.org/2000/svg">
<rect width="341" height="440" rx="10" fill="#FFD200"/>
<circle cx="168" cy="181" r="132" fill="#F8F8F8"/>
<path d="M54 180.427V203.709L63.0677 228.478L82.8517 244L87.1382 240.037M54 180.427L111.374 161.903M54 180.427L87.1382 218.901M283 150.704L276.735 138.32L244.256 119L189.356 136.725M283 150.704V157.474L272.119 164.575V170.189L87.1382 240.037M283 150.704L263.556 157.474M87.1382 240.037V218.901M115.66 160.519L149.128 149.713L189.356 136.725M115.66 160.519L107.911 141.292M115.66 160.519L111.374 161.903M107.911 141.292L175.837 121.147L189.356 136.725M107.911 141.292V152.851L111.374 161.903M87.1382 218.901L101.152 214.022M101.152 214.022V224.845L263.216 166.556L263.556 157.474M101.152 214.022L263.556 157.474M101.152 214.022L92.5788 210.645M263.556 157.474L268.162 150.704M256.292 133.861L240.794 125.275L69.4975 180.427L82.8517 190.664M256.292 133.861L265.689 144.099M256.292 133.861L189.356 155.783M265.689 144.099L89.941 203.709M265.689 144.099L268.162 150.704M89.941 203.709L82.8517 190.664M89.941 203.709L92.5788 210.645M82.8517 190.664L162.513 164.575M162.513 164.575L168.418 168.373L189.356 161.903V155.783M162.513 164.575L189.356 155.783M92.5788 210.645L268.162 150.704" stroke="black" stroke-width="4" stroke-linejoin="round"/>
</svg>
