<svg width="341" height="440" viewBox="0 0 341 440" fill="none" xmlns="http://www.w3.org/2000/svg">
<rect width="341" height="440" rx="10" fill="#FFD200"/>
<circle cx="174" cy="181" r="132" fill="#F8F8F8"/>
<path d="M216.189 168.175C217.793 164.411 254.731 138.49 273 126V206.484C266.205 214.382 250.844 230.815 243.759 233.369M216.189 168.175C214.585 171.938 214.518 177.36 214.685 179.6C220.144 183.801 230.158 196.1 226.549 211.693M216.189 168.175C219.183 168.909 223.701 170.824 228.22 174.25M226.549 211.693C229.334 219.983 236.675 235.923 243.759 233.369M226.549 211.693C225.817 213.552 224.269 213.626 222.204 212.569M243.759 233.369C245.207 228.328 246.967 213.743 242.422 195.731C239.864 185.589 234.042 178.665 228.22 174.25M228.22 174.25L213.182 180.944L209.004 177.597M199.647 170.427C201.6 171.813 203.449 173.191 204.827 174.25L209.004 177.597M199.647 170.427C195.287 167.333 190.413 164.199 189.12 164.478C186.781 164.982 172.578 160.781 170.573 164.478C169.848 165.816 168.023 168.9 165.939 172.375M199.647 170.427C203.657 168.444 211.979 164.848 213.182 166.326C214.685 168.175 215.688 175.594 209.004 177.597M165.939 172.375C163.415 176.582 160.51 181.361 158.71 184.305C161.718 187.778 169.872 191.698 178.427 179.6C180.042 180.44 184.442 181.617 189.12 179.6C188.118 180.664 187.984 183.935 195.47 188.506C202.67 192.902 215.313 209.039 222.204 212.569M165.939 172.375C161.802 171.884 152.394 171.572 147.849 174.25C143.304 176.928 136.264 171.315 133.312 168.175M142.168 223.455L139.996 221.944M142.168 223.455C142.614 219.478 144.775 212.214 149.854 214.97C154.934 217.725 154.421 223.455 153.53 225.975M142.168 223.455V229.168C143.104 233.604 149.019 232.696 151.859 231.688M129.97 214.97C128.188 216.342 125.158 219.523 127.297 221.271C129.97 223.455 132.143 225.642 139.996 221.944M129.97 214.97L139.996 221.944M129.97 214.97L122.236 209.589M153.53 225.975C154.143 224.128 156.036 220.735 158.71 221.944C162.052 223.455 162.887 226.984 161.885 231.688M153.53 225.975L151.859 231.688M161.885 231.688C162.219 228.888 163.823 223.825 167.566 225.975C171.309 228.126 172.913 234.937 173.247 238.073C173.925 238.619 174.933 239.35 176.087 240.067M161.885 231.688V238.073M186.447 238.073C186.558 239.53 186.013 242.476 182.938 242.61C180.933 242.698 178.251 241.409 176.087 240.067M186.447 238.073L174.751 225.975M186.447 238.073C190.791 240.482 199.781 242.778 200.984 232.696M200.984 232.696L184.442 216.062M200.984 232.696C205.217 233.649 213.382 233.167 212.179 223.623M212.179 223.623L193.298 204.132M212.179 223.623C216.523 225.047 224.611 224.829 222.204 212.569M176.087 240.067C171.743 243.435 162.82 247.752 161.885 238.073M161.885 238.073C157.969 237.898 150.482 236.376 151.859 231.688M122.236 209.589C132.986 192.253 134.421 173.309 133.312 163.974L76 126.504V206.484L106.912 226.984C113.403 221.726 118.409 215.759 122.236 209.589Z" stroke="black" stroke-width="4"/>
</svg>
