<svg width="341" height="440" viewBox="0 0 341 440" fill="none" xmlns="http://www.w3.org/2000/svg">
<rect width="341" height="440" rx="10" fill="#FFD200"/>
<circle cx="171" cy="181" r="132" fill="#F8F8F8"/>
<path d="M212.926 203.975V133.6M212.926 203.975V223.68M212.926 203.975H134.542M212.926 133.6V126H122.904V169.914M212.926 133.6H240.83C253.03 145.611 277.428 170.815 277.428 175.544C277.428 178.839 277.428 194.076 277.428 207.775M212.926 223.68H219.376M212.926 223.68H174.926C173.898 218.378 169.149 207.775 158.38 207.775C147.611 207.775 142.862 218.378 141.834 223.68H134.542V218.754M219.376 223.68C220.405 215.141 227.229 198.064 246.299 198.064C265.369 198.064 270.791 215.141 271.118 223.68M219.376 223.68H230.173C230.267 217.956 233.623 206.509 246.299 206.509C258.975 206.509 262.611 217.956 262.845 223.68H271.118M271.118 223.68H277.428C277.428 222.193 277.428 220.535 277.428 218.754M277.428 207.775C279.952 207.353 285 207.944 285 213.687C285 219.429 279.952 219.458 277.428 218.754M277.428 207.775C277.428 211.661 277.428 215.423 277.428 218.754M134.542 203.975H122.904V175.544M134.542 203.975V207.775M134.542 207.775C132.533 207.447 128.569 208.169 128.793 213.687C129.018 219.204 132.72 219.364 134.542 218.754M134.542 207.775V218.754M122.904 169.914H138.469V175.544H122.904M122.904 169.914H67.797V175.544H122.904M120.24 187.085H57V192.152H120.24V187.085Z" stroke="black" stroke-width="4" stroke-linejoin="round"/>
<path d="M237.5 171.5H232.5M224 141H237.5C247.667 151.833 268 173.9 268 175.5C268 177.1 268 187.833 268 193C263.667 190.667 252.9 186 244.5 186C236.1 186 227.333 190.667 224 193V141Z" stroke="black" stroke-width="4" stroke-linecap="round" stroke-linejoin="round"/>
<path d="M169 223.24C169 229.126 164.064 234 157.846 234C151.628 234 146.692 229.126 146.692 223.24C146.692 217.354 151.628 212.48 157.846 212.48C164.064 212.48 169 217.354 169 223.24Z" stroke="black" stroke-width="4" stroke-linejoin="round"/>
<path d="M256.692 223.24C256.692 229.189 251.888 234 245.977 234C240.066 234 235.262 229.189 235.262 223.24C235.262 217.291 240.066 212.48 245.977 212.48C251.888 212.48 256.692 217.291 256.692 223.24Z" stroke="black" stroke-width="4" stroke-linejoin="round"/>
</svg>
